<svg xmlns="http://www.w3.org/2000/svg" xmlns:xlink="http://www.w3.org/1999/xlink" viewBox="0 0 407.29349 407.29348">
  <defs>
    <path id="reuse-1" fill="#e50914" d="M115.05352516 58.75479496l54.69434075 154.98377069v-.07041434l4.3185136 12.21846525c24.03870672 68.02047337 36.95365437 104.49111544 37.02961021 104.56705674.05025152.05026896 3.68723838.26967015 8.08223406.48778336 13.31584914.66076498 29.81682564 2.07666626 42.33447988 3.63198032 2.88346126.35823539 5.36500635.5422477 5.53825836.41169086l-54.27072374-153.9661775v.02837623l-5.02321812-14.1735789c-4.90823042-13.84914204-8.18542643-23.11092896-27.90423273-78.86324554-5.30220649-14.99128654-9.80150226-27.70662949-9.99873161-28.25630269l-.35888374-.99941902H115.05352515z"/>
    <path id="reuse-0" fill="#b1060f" stroke="#000" stroke-width=".29074" d="M212.99545281 58.9365075l-.1073238 61.05541797-.10789073 61.05541564-5.02321812-14.1735789c-.00174444-.00488444-.0079372-.0229394-.00965257-.02782383l-6.49111245 135.92553167c6.3820006 18.02266356 9.80132782 27.6438023 9.83973458 27.68220325.05025152.05026896 3.68723838.26967015 8.08223406.48778336 13.31584914.66076498 29.81682564 2.07666626 42.33447988 3.63198032 2.89831517.36008159 5.39263538.54448348 5.54279972.40999003.15016725-.13449636.2319379-62.30017684.18171255-138.14583225l-.09142322-137.90108725h-54.1503399zM115.05238836 58.75479496v138.04077913c0 75.9225271.0742899 138.11561855.16524503 138.20659112.09094932.0909435 4.792763-.35295264 10.44847163-.98635898 5.65570281-.63343541 13.47228184-1.42108809 17.37001604-1.75011864 5.97789806-.50466663 23.82613502-1.65223517 25.8929045-1.6649405.60120977-.00377963.63977063-3.10556053.7268502-58.46828656l.09199015-58.46430922 4.3185136 12.21846525c.66739676 1.88848183.87674124 2.47820448 1.52695236 4.31794665l6.48940871-135.89202795c-1.37498833-3.88753852-.65420007-1.84678738-2.22995315-6.30201859-5.30220649-14.99128654-9.80150226-27.7066295-9.99873161-28.25630269l-.35888374-.99941902h-54.44278372z"/>
  </defs>
  <defs>
    <radialGradient id="c" cx="367.99158" cy="280.36646" r="368.71729" fx="367.99158" fy="280.36646" gradientTransform="matrix(.30407 -.10528 3.8564 11.13776 -825.1108 -2803.5461)" gradientUnits="userSpaceOnUse" xlink:href="#a"/>
    <radialGradient id="b" cx="367.99158" cy="280.36646" r="368.71729" fx="367.99158" fy="280.36646" gradientTransform="matrix(.30407 -.10528 3.8564 11.13776 -825.1108 -2803.5461)" gradientUnits="userSpaceOnUse" xlink:href="#a"/>
    <linearGradient id="a">
      <stop offset="0"/>
      <stop offset="1" stop-opacity="0"/>
    </linearGradient>
  </defs>
  <g transform="translate(12.494543 6.7556334)">
    <rect width="407.29349" height="407.29349" x="-12.494543" y="-6.7556334" ry="37.455776"/>
    <g fill-rule="evenodd">
      <use stroke-width=".29074" xlink:href="#reuse-0"/>
      <path fill="url(#b)" d="M114.95117-189.22852V77.285156l187.7461 498.023434c.0196-11.41266.042-17.57934.0625-30.625l.3164-201.08789 14.85352 42.02539c82.68109 233.9563 127.10203 359.39701 127.36328 359.65821.17284.1729 12.68225.92753 27.79883 1.67773 45.79984 2.2727 102.55492 7.14269 145.60937 12.49219 9.96875 1.2385 18.54796 1.87275 19.06445 1.41016.355-.31796.58674-105.15812.64844-253.0586L451.54688-29.443359l-.0899 50.839843-.37109 209.999996-17.27735-48.75c-16.88185-47.6341-28.15376-79.49-95.97656-271.249996-18.23693-51.562504-33.71225-95.296904-34.39062-97.187504l-1.23438-3.4375H114.95112z" transform="translate(81.631476 113.77111) scale(.29074)"/>
      <use xlink:href="#reuse-1"/>
      <use stroke-width=".29074" xlink:href="#reuse-0"/>
      <path fill="url(#c)" d="M114.95117-189.22852V77.285156l187.7461 498.023434c.0196-11.41266.042-17.57934.0625-30.625l.3164-201.08789 14.85352 42.02539c82.68109 233.9563 127.10203 359.39701 127.36328 359.65821.17284.1729 12.68225.92753 27.79883 1.67773 45.79984 2.2727 102.55492 7.14269 145.60937 12.49219 9.96875 1.2385 18.54796 1.87275 19.06445 1.41016.355-.31796.58674-105.15812.64844-253.0586L451.54688-29.443359l-.0899 50.839843-.37109 209.999996-17.27735-48.75c-16.88185-47.6341-28.15376-79.49-95.97656-271.249996-18.23693-51.562504-33.71225-95.296904-34.39062-97.187504l-1.23438-3.4375H114.95112z" transform="translate(81.631476 113.77111) scale(.29074)"/>
      <use xlink:href="#reuse-1"/>
    </g>
  </g>
</svg>
